<?xml version="1.0" encoding="UTF-8" standalone="no"?>
<svg
   width="100"
   height="100"
   viewBox="0 0 100 100"
   fill="none"
   version="1.1"
   id="svg"
   sodipodi:docname="0.svg"
   inkscape:version="1.1-alpha (ae80b40, 2021-03-23)"
   xmlns:inkscape="http://www.inkscape.org/namespaces/inkscape"
   xmlns:sodipodi="http://sodipodi.sourceforge.net/DTD/sodipodi-0.dtd"
   xmlns="http://www.w3.org/2000/svg"
   xmlns:svg="http://www.w3.org/2000/svg">
  <defs
     id="defs56" />
  <sodipodi:namedview
     id="namedview54"
     pagecolor="#505050"
     bordercolor="#eeeeee"
     borderopacity="1"
     objecttolerance="10.0"
     gridtolerance="10.0"
     guidetolerance="10.0"
     inkscape:pageshadow="0"
     inkscape:pageopacity="0"
     inkscape:pagecheckerboard="0"
     showgrid="false"
     inkscape:zoom="4.6242539"
     inkscape:cx="12.866941"
     inkscape:cy="35.357055"
     inkscape:window-width="1920"
     inkscape:window-height="1009"
     inkscape:window-x="1912"
     inkscape:window-y="-8"
     inkscape:window-maximized="1"
     inkscape:current-layer="svg" />
  <path
     d="m 50.979321,23.65706 c 0.001,0.06757 0.0031,0.201815 -0.05518,0.644418 -0.05822,0.442523 -0.17626,1.189966 -0.05062,2.189457 0.125558,0.999572 0.494553,2.249195 1.040769,3.424945 0.546216,1.17575 1.269173,2.277626 2.473086,3.510479 1.203915,1.232932 2.888547,2.597 6.38273,3.786726 3.494264,1.189726 8.797917,2.20559 14.070141,2.432881 5.271823,0.227372 10.512457,-0.33367 14.111245,-1.155544 3.597988,-0.821795 5.554129,-1.904345 6.987246,-3.429737 1.433117,-1.525472 2.34401,-3.494267 2.988593,-6.752856 0.644572,-3.258669 1.023642,-7.807134 0.204731,-12.210646 C 98.313933,11.693591 96.297813,7.4351433 93.828245,4.911242 91.358677,2.3873405 88.434862,1.5989523 84.239475,1.0517917 80.044089,0.50459109 74.577291,0.19887855 68.542604,0.54881159 62.507997,0.89871739 55.906301,1.9043822 51.984342,3.5183351 c -3.922038,1.613953 -5.16338,3.835635 -5.825397,5.9903512 -0.661937,2.1547167 -0.744629,4.2416287 -0.3574,5.9730687 0.38723,1.73152 1.243261,3.10645 1.578909,3.862038 0.335647,0.755668 0.150829,0.891835 -0.428176,1.940363 -0.578926,1.048527 -1.551718,3.008936 -1.980373,3.984788 -0.428736,0.975772 -0.314454,0.967387 0.697845,0.563037 1.012299,-0.404268 2.922616,-1.204181 3.956986,-1.643829 1.034292,-0.439569 1.192559,-0.518634 1.271652,-0.558166 0.07909,-0.03946 0.07981,-0.04041 0.08093,0.02843 z"
     stroke="#000000"
     id="path2"
     style="stroke-width:0.799182" />
  <path
     d="m 51.172136,7.1992026 c 0.585563,1.39345 1.170645,2.7858697 1.525646,3.4691014 0.355,0.683232 0.479359,0.658475 0.839957,-0.05622 0.360679,-0.7145377 0.958237,-2.1194166 1.555956,-3.5246623"
     stroke="#000000"
     id="path4"
     style="stroke-width:0.799182" />
  <path
     d="m 53.15163,10.928978 c 0.498151,2.102086 0.996143,4.203215 1.493896,6.303305"
     stroke="#000000"
     id="path6"
     style="stroke-width:0.799182" />
  <path
     d="m 57.932179,12.116548 c 0.111881,-0.267144 0.336047,-0.801749 0.59164,-1.100359 0.255594,-0.298689 0.541978,-0.360903 0.828362,-0.223537 0.286382,0.137285 0.572766,0.472951 0.771659,0.939194 0.198893,0.466243 0.310936,1.062982 0.273428,1.696859 -0.03751,0.633877 -0.224245,1.305208 -0.541258,1.634406 -0.316932,0.329197 -0.765102,0.316818 -1.101469,0.08713 -0.336287,-0.229528 -0.560371,-0.677082 -0.697525,-1.174393 -0.137153,-0.497389 -0.187057,-1.044374 -0.212008,-1.318306 -0.02495,-0.274091 -0.02471,-0.273852 0.08709,-0.540995 z"
     stroke="#000000"
     id="path8"
     style="stroke-width:0.799182" />
  <path
     d="m 63.422569,11.227348 c 0.174501,0.834015 0.348762,1.66699 0.529582,2.210861 0.180739,0.54395 0.367396,0.798714 0.625948,0.972497 0.258634,0.173624 0.588363,0.267144 0.905295,0.130098 0.316934,-0.136726 0.621951,-0.50362 0.71232,-1.143485 0.09037,-0.639867 -0.03415,-1.553585 -0.04614,-2.010963 -0.012,-0.457378 0.08757,-0.457378 0.442171,0.195746 0.3546,0.653203 0.964635,1.958572 1.57419,3.262981"
     stroke="#000000"
     id="path10"
     style="stroke-width:0.799182" />
  <path
     d="m 76.531992,10.071165 c -0.373394,0.323207 -0.746868,0.646414 -1.101788,1.013228 -0.354921,0.366892 -0.691048,0.777151 -0.884023,1.293388 -0.192975,0.516318 -0.242798,1.137895 -0.199053,1.622906 0.04383,0.485011 0.180739,0.833136 0.461044,1.00668 0.280386,0.173702 0.703604,0.173702 1.238783,0.06157 0.53518,-0.112048 1.182562,-0.335746 1.829464,-0.559364"
     stroke="#000000"
     id="path12"
     style="stroke-width:0.799182" />
  <path
     d="m 83.973165,15.14553 c -0.303897,-0.264028 -0.607795,-0.528616 -0.808528,-0.928412 -0.200732,-0.399717 -0.296699,-0.934723 -0.428655,-1.362711 -0.132755,-0.427908 -0.302298,-0.74896 -0.611793,-0.9126 -0.310296,-0.16356 -0.761345,-0.168911 -1.111627,-0.06469 -0.349481,0.104222 -0.597398,0.318336 -0.826121,0.580368 -0.228723,0.262032 -0.437452,0.571663 -0.561411,0.856296 -0.123958,0.284554 -0.163385,0.543711 -0.07541,0.774676 0.08821,0.230806 0.302538,0.433659 0.68241,0.475428 0.380672,0.04168 0.927688,-0.07643 1.384334,-0.256682 0.456646,-0.180331 0.822923,-0.422397 1.189199,-0.664463"
     stroke="#000000"
     id="path14"
     style="stroke-width:0.799182" />
  <path
     d="m 91.721754,15.094737 c -0.107163,-0.855018 -0.214327,-1.711075 -0.436652,-2.434639 -0.223125,-0.723642 -0.561411,-1.314951 -0.913292,-1.605494 -0.352682,-0.290463 -0.718958,-0.279123 -1.074838,-0.05399 -0.355881,0.225455 -0.699765,0.664625 -1.01246,1.292671 -0.313493,0.628126 -0.594999,1.44473 -0.738951,1.993872 -0.143151,0.54922 -0.148749,0.830899 -0.184737,0.233999 -0.03679,-0.596899 -0.104765,-2.072377 -0.171943,-3.548653"
     stroke="#000000"
     id="path16"
     style="stroke-width:0.799182" />
  <path
     d="m 65.194532,28.373876 c -0.630668,-0.07858 -1.262295,-0.15757 -1.764606,-0.0063 -0.502391,0.1519 -0.874585,0.535006 -1.145294,0.957563 -0.270789,0.422558 -0.439932,0.884408 -0.507509,1.290114 -0.06758,0.405627 -0.03375,0.754791 0.124599,1.047569 0.158265,0.2927 0.440251,0.529256 0.817884,0.573899 0.377632,0.04448 0.851393,-0.101985 1.36426,-0.535404 0.512787,-0.433499 1.065481,-1.154267 1.319316,-2.201357 0.253754,-1.04709 0.208729,-2.421141 0.02271,-3.626281 -0.185937,-1.20506 -0.513027,-2.241289 -0.77262,-2.590771 -0.259673,-0.349483 -0.451368,-0.01262 -0.248157,1.21081 0.203292,1.222391 0.801011,3.32855 1.421602,4.702521 0.620591,1.374052 1.263414,2.016074 1.905518,2.657218"
     stroke="#000000"
     id="path18"
     style="stroke-width:0.799182" />
  <path
     d="m 71.386526,28.233077 c -0.202891,0.129459 -0.608915,0.388456 -0.908014,0.726598 -0.2991,0.338221 -0.490795,0.754869 -0.592201,1.121124 -0.101486,0.366253 -0.112762,0.681634 -0.05046,0.963312 0.0623,0.281679 0.197693,0.529495 0.412261,0.720688 0.214488,0.191034 0.507749,0.326402 0.862749,0.320412 0.355001,-0.0063 0.7723,-0.152538 1.09907,-0.411297 0.32677,-0.258917 0.56357,-0.630441 0.676413,-1.058111 0.112921,-0.427748 0.101645,-0.91204 -0.0164,-1.272465 -0.11804,-0.360343 -0.343644,-0.596899 -0.574686,-0.782821 -0.231043,-0.186002 -0.468003,-0.321211 -0.586923,-0.389015 -0.118919,-0.06789 -0.118919,-0.06789 -0.321811,0.06158 z"
     stroke="#000000"
     id="path20"
     style="stroke-width:0.799182" />
  <path
     d="m 82.823152,28.1374 c 0.292702,1.442574 0.586204,2.88427 0.879704,4.324927"
     stroke="#000000"
     id="path22"
     style="stroke-width:0.799182" />
  <path
     d="m 81.43562,24.285426 c 0.223925,0 0.406263,-0.18153 0.406263,-0.405467 0,-0.223938 -0.182338,-0.405467 -0.406263,-0.405467 -0.224724,0 -0.406263,0.181529 -0.406263,0.405467 0,0.223937 0.181539,0.405467 0.406263,0.405467 z"
     fill="#000000"
     id="path24"
     style="stroke-width:0.799182" />
  <path
     d="m 86.747431,23.812394 c 0.03439,0.09121 0.06798,0.181211 0.344684,1.611565 0.275906,1.430435 0.794931,4.201058 1.313157,6.970803"
     stroke="#000000"
     id="path26"
     style="stroke-width:0.799182" />
  <path
     d="m 85.462264,27.698072 c 1.252378,-0.214115 2.503956,-0.428069 3.755535,-0.641943"
     stroke="#000000"
     id="path28"
     style="stroke-width:0.799182" />
  <path
     d="m 91.213925,23.237936 c 0,0.07962 0,0.158529 0.191937,1.037107 0.191935,0.878578 0.575006,2.55675 0.958876,4.233962"
     stroke="#000000"
     id="path30"
     style="stroke-width:0.799182" />
  <path
     d="m 93.108488,31.786682 c 0.20553,0 0.372674,-0.166435 0.372674,-0.371685 0,-0.205328 -0.167144,-0.371684 -0.372674,-0.371684 -0.205531,0 -0.371875,0.166356 -0.371875,0.371684 0,0.20525 0.166344,0.371685 0.371875,0.371685 z"
     fill="#000000"
     id="path32"
     style="stroke-width:0.799182" />
  <path
     d="m 20.087488,99.518334 c 8.294566,-0.11101 24.882738,-0.334628 33.192338,-0.493556 8.309521,-0.158928 8.34151,-0.254764 8.182123,-2.691399 C 61.302563,93.896744 60.951641,89.118513 59.962774,82.173585 58.973908,75.228498 57.347016,66.117673 55.64039,58.424265 53.933766,50.730776 52.147407,44.455185 50.089941,39.549252 48.032553,34.643238 45.703819,31.107204 42.673479,28.415086 39.64306,25.722888 35.910798,23.875246 32.305852,23.365238 c -3.605026,-0.510008 -7.082094,0.318256 -10.065009,1.656289 -2.982915,1.338032 -5.471117,3.185674 -7.640546,5.718465 -2.169349,2.532789 -4.019526,5.750249 -5.0722107,9.66899 -1.0526053,3.918661 -1.3077993,8.537725 -1.1163439,16.310916 0.1914556,7.773192 0.8294007,18.699793 1.4355169,26.249926 0.6061947,7.550292 1.1804007,11.723159 1.4994137,13.937773 0.319093,2.213816 0.382831,2.468579 0.41458,2.595567 0.03175,0.12698 0.03175,0.12698 8.326235,0.016 z"
     stroke="#000000"
     id="path34"
     style="stroke-width:0.799182" />
  <path
     d="M 16.386656,99.725184 C 16.099552,93.323324 15.812449,86.919872 15.54134,80.134671 15.270152,73.348911 15.014957,66.181324 14.983048,59.730192 c -0.03191,-6.450971 0.159467,-12.185089 0.972872,-16.39046 0.813407,-4.205371 2.248923,-7.286747 3.796161,-9.301863 1.54732,-2.015194 3.206121,-3.36904 4.30719,-3.950207 1.100989,-0.581167 2.50829,0.04245 3.257717,1.022374 0.749508,0.979925 0.706304,2.774974 1.254514,3.70372 0.845635,1.090856 1.254932,1.450886 2.081616,1.432859 0.637466,-0.207086 1.09867,-0.65707 1.433597,-1.899186 0.335006,-1.242197 0.0031,-3.114896 0.282376,-4.071022 0.279265,-0.956126 0.845077,-1.42722 1.355705,-1.586469 0.265029,-0.08256 0.759448,-0.267356 1.338398,-0.235852 0.536681,0.0292 1.153606,0.263292 1.54113,0.470369 0.805568,0.430543 1.826345,1.354325 3.134064,3.520701 1.307719,2.166457 2.902702,5.575029 4.481771,9.700457 1.578987,4.125508 3.142061,8.96763 4.561583,14.383331 1.419521,5.415703 2.695491,11.404584 3.636535,16.788421 0.941042,5.383756 1.547078,10.161988 2.137279,14.303707 0.590202,4.14172 1.164408,7.645331 1.738455,11.148942"
     stroke="#000000"
     id="path36"
     style="stroke-width:0.799182"
     sodipodi:nodetypes="ccssccccccscscccsssc" />
  <path
     d="m 27.966514,99.247597 c -0.127557,-1.846443 -0.255194,-3.694484 -0.765262,-5.144006 -0.509989,-1.449522 -1.403208,-2.500526 -2.487882,-2.978908 -1.084594,-0.478382 -2.360564,-0.382546 -3.302088,0.126983 -0.941522,0.509529 -1.547638,1.43355 -1.850576,2.81998 -0.303017,1.38563 -0.303017,3.233672 -0.303017,5.080115"
     stroke="#000000"
     id="path38"
     style="stroke-width:0.799182" />
  <path
     d="m 53.901457,98.770014 c -0.255035,-2.038117 -0.510229,-4.077031 -0.89274,-5.398771 -0.382511,-1.32254 -0.892899,-1.927904 -1.578668,-2.262533 -0.685769,-0.334628 -1.547078,-0.398518 -2.472446,-0.223617 -0.92537,0.1757 -1.914316,0.589392 -2.392955,1.959849 -0.478718,1.370457 -0.446729,3.696082 -0.41482,6.020109"
     stroke="#000000"
     id="path40"
     style="stroke-width:0.799182" />
  <path
     d="m 25.015659,37.783982 c 0.383151,0 0.693767,-0.31019 0.693767,-0.692895 0,-0.382627 -0.310616,-0.692896 -0.693767,-0.692896 -0.38323,0 -0.693846,0.310269 -0.693846,0.692896 0,0.382705 0.310616,0.692895 0.693846,0.692895 z"
     fill="#000000"
     id="path42"
     style="stroke-width:0.799182" />
  <path
     d="m 36.038985,37.151454 c 0.38315,0 0.693845,-0.31019 0.693845,-0.692895 0,-0.382626 -0.310695,-0.692816 -0.693845,-0.692816 -0.383231,0 -0.693847,0.31019 -0.693847,0.692816 0,0.382705 0.310616,0.692895 0.693847,0.692895 z"
     fill="#000000"
     id="path44"
     style="stroke-width:0.799182" />
  <path
     d="m 29.220641,41.32456 c 0.502791,-0.0559 1.507652,-0.167314 2.121846,-0.158768 0.614192,0.0094 0.837557,0.135767 0.725355,1.258727 -0.112282,1.122961 -0.558851,3.24142 -0.909213,4.308236 -0.350362,1.066816 -0.605716,1.082789 -1.076518,0.09568 -0.470722,-0.987033 -1.15657,-2.978109 -1.419922,-4.05379 -0.26335,-1.075681 -0.103884,-1.234929 -0.02407,-1.314553 0.07973,-0.07962 0.07973,-0.07954 0.582603,-0.135448 z"
     stroke="#000000"
     id="path46"
     style="stroke-width:0.799182" />
  <path
     d="m 8.4913157,49.694628 c -0.095168,0.03155 -0.1908957,0.06381 -0.940931,1.632889 -0.7499953,1.569237 -2.1535785,4.675207 -3.3657941,7.853054 -1.2122235,3.177769 -2.2330236,6.427094 -2.8869393,9.286365 -0.65391568,2.859273 -0.94101661,5.328173 -0.89272328,6.777695 0.0482798,1.449522 0.4310947,1.879586 1.05305328,1.990596 0.6219664,0.110851 1.4832762,-0.09608 2.5276523,-1.171117 1.0443762,-1.074963 2.2725304,-3.018201 3.1258509,-4.634797 0.8532886,-1.616677 1.3318473,-2.906792 1.8104861,-4.197465"
     stroke="#000000"
     id="path48"
     style="stroke-width:0.799182" />
  <path
     d="m 52.657396,46.493061 c 1.659601,1.657327 3.318402,3.313935 4.785747,5.209494 1.467346,1.89556 2.743316,4.029912 3.875654,6.578435 1.132339,2.548603 2.121206,5.511218 2.61552,7.518187 0.494232,2.00689 0.494232,3.058053 0.111721,3.678752 -0.382511,0.620698 -1.148093,0.811811 -1.945583,0.414092 -0.797492,-0.397721 -1.626812,-1.385152 -2.520032,-2.436475 -0.893219,-1.051323 -1.850176,-2.166297 -2.808014,-3.28215"
     stroke="#000000"
     id="path50"
     style="stroke-width:0.799182" />
</svg>
