<?xml version="1.0" encoding="UTF-8" standalone="no"?>
<svg
   width="100"
   height="53.438"
   viewBox="0 0 100 53.438"
   fill="none"
   version="1.1"
   id="svg"
   sodipodi:docname="1.svg"
   inkscape:version="1.1-alpha (ae80b40, 2021-03-23)"
   xmlns:inkscape="http://www.inkscape.org/namespaces/inkscape"
   xmlns:sodipodi="http://sodipodi.sourceforge.net/DTD/sodipodi-0.dtd"
   xmlns="http://www.w3.org/2000/svg"
   xmlns:svg="http://www.w3.org/2000/svg">
  <defs
     id="defs70" />
  <sodipodi:namedview
     id="namedview68"
     pagecolor="#505050"
     bordercolor="#eeeeee"
     borderopacity="1"
     objecttolerance="10.0"
     gridtolerance="10.0"
     guidetolerance="10.0"
     inkscape:pageshadow="0"
     inkscape:pageopacity="0"
     inkscape:pagecheckerboard="0"
     showgrid="false"
     inkscape:zoom="12.670659"
     inkscape:cx="85.591447"
     inkscape:cy="13.140596"
     inkscape:window-width="1920"
     inkscape:window-height="1009"
     inkscape:window-x="1912"
     inkscape:window-y="-8"
     inkscape:window-maximized="1"
     inkscape:current-layer="svg" />
  <path
     d="m 65.025161,53.087857 c 5.884429,-0.07104 17.652685,-0.213378 23.678965,-0.391534 6.026279,-0.177975 6.311185,-0.391473 6.299163,-3.309525 -0.01202,-2.918051 -0.320368,-8.541076 -0.533746,-12.361086 -0.213379,-3.81995 -0.332389,-5.836644 -0.652757,-8.316038 C 93.497019,26.230279 92.974693,23.288185 92.263032,20.191918 91.551372,17.095591 90.649774,13.84509 89.68867,11.258947 88.728168,8.6727434 87.707559,6.7508975 86.260795,5.4101615 84.813431,4.0693773 82.939309,3.3101357 81.183598,2.9303707 79.427285,2.5505996 77.790584,2.5506056 75.987389,2.7521368 74.183592,2.9536679 72.214502,3.357127 70.351801,4.1163805 68.4891,4.8756281 66.733388,5.9907304 65.203077,7.4263144 c -1.530914,1.4355241 -2.835826,3.1912356 -3.70136,4.9116046 -0.866135,1.720369 -1.293493,3.404915 -1.661044,5.575963 -0.367732,2.171046 -0.676199,4.828356 -0.889697,9.004317 -0.213378,4.1759 -0.332149,9.870151 -0.34399,13.476663 -0.01184,3.606452 0.08319,5.124862 0.177976,6.797568 0.09485,1.672764 0.189936,3.499641 0.249202,4.519889 0.05938,1.020188 0.08319,1.233807 0.09509,1.340256 0.01184,0.106448 0.01184,0.106448 5.895909,0.03516 z"
     stroke="#000000"
     id="path2"
     style="stroke-width:0.601065" />
  <path
     d="M 91.384877,52.518408 C 91.313946,49.482127 91.242424,46.445124 91.005605,42.494624 90.768183,38.544182 90.364869,33.680362 89.582282,28.43679 88.799093,23.193218 87.636634,17.570132 86.640068,14.117914 85.644102,10.665756 84.813431,9.3845248 83.876369,8.5301106 82.939309,7.6757565 82.132026,7.2092382 81.230428,6.9955598 80.32883,6.7818811 79.639874,6.6638112 79.090506,6.7030187 c -0.339241,0.024211 -1.174535,0.098653 -1.174535,0.098653 -0.313036,0.068148 -1.019304,0.4144109 -1.197504,1.1620081 -0.178232,0.747733 -0.249814,2.2424872 -0.557815,3.0843062 -0.308092,0.842065 -0.703506,1.163949 -1.201391,1.080536 C 74.54459,12.059051 74.111116,12.026451 73.81969,11.399269 73.510969,10.734863 73.289073,9.7662086 73.194396,9.2322909 73.099738,8.6984761 72.342243,7.9090137 71.820517,7.9441558 71.298192,7.9793381 70.75543,8.0903321 69.84181,8.52923 c -0.913619,0.4390181 -1.684498,0.9494817 -2.539213,2.100341 -0.854114,1.150921 -1.731668,2.76424 -2.502836,5.030315 -0.771166,2.266017 -1.435343,5.184309 -1.815217,8.921311 -0.379272,3.737063 -0.47424,8.292416 -0.510303,13.180098 -0.03546,4.887743 -0.01142,10.107452 0.01202,15.326622"
     stroke="#000000"
     id="path4"
     style="stroke-width:0.601065"
     sodipodi:nodetypes="cccccssssssssscccccc" />
  <path
     d="m 71.223346,53.072169 c -0.02344,-1.541612 -0.04688,-3.083765 -0.390692,-4.448003 -0.34381,-1.364237 -0.773572,-2.135404 -1.497255,-2.693372 -0.723682,-0.558029 -1.704019,-0.668325 -2.40426,-0.300533 -0.700241,0.367791 -1.3542,0.798454 -1.662546,2.103728 -0.308948,1.305273 -0.308948,3.250801 -0.308948,5.195728"
     stroke="#000000"
     id="path6"
     style="stroke-width:0.601065" />
  <path
     d="m 82.986192,52.731966 c 0.09437,-1.589036 0.189336,-3.178733 0.497682,-4.436462 0.308347,-1.257669 0.830672,-2.183008 1.61386,-2.681412 0.783188,-0.498343 1.827238,-0.569569 2.574963,-0.308227 0.747124,0.261344 1.197924,0.854475 1.482227,2.135706 0.284304,1.28123 0.403316,3.2505 0.521725,5.219109"
     stroke="#000000"
     id="path8"
     style="stroke-width:0.601065" />
  <path
     d="m 71.373011,14.528682 c 0.347415,0 0.629315,-0.28166 0.629315,-0.629136 0,-0.347475 -0.2819,-0.629134 -0.629315,-0.629134 -0.347415,0 -0.628714,0.281659 -0.628714,0.629134 0,0.347476 0.281299,0.629136 0.628714,0.629136 z"
     fill="#000000"
     id="path10"
     style="stroke-width:0.601065" />
  <path
     d="m 79.552307,14.000285 c 0.347415,0 0.628714,-0.281719 0.628714,-0.629194 0,-0.347476 -0.281299,-0.629136 -0.628714,-0.629136 -0.348017,0 -0.629316,0.28166 -0.629316,0.629136 0,0.347475 0.281299,0.629194 0.629316,0.629194 z"
     fill="#000000"
     id="path12"
     style="stroke-width:0.601065" />
  <path
     d="m 73.97382,16.491581 c 0.528938,-0.150928 1.417913,-0.301976 1.921605,-0.301615 0.503092,4.21e-4 0.6203,0.151408 0.552981,1.132827 -0.06732,0.98136 -0.319166,2.793271 -0.578826,3.698956 -0.25966,0.905745 -0.527736,0.905745 -0.989353,0.07555 -0.461619,-0.830072 -1.116178,-2.490995 -1.35961,-3.397402 -0.24283,-0.906406 -0.07513,-1.057272 0.453203,-1.20832 z"
     stroke="#000000"
     id="path14"
     style="stroke-width:0.601065" />
  <path
     d="m 59.140853,22.480775 c -1.257609,1.755891 -2.515098,3.511663 -3.487922,5.125163 -0.972823,1.613499 -1.660863,3.084426 -2.016694,4.543812 -0.35577,1.459387 -0.379512,2.906692 -0.03516,3.683448 0.344411,0.776756 1.056192,0.883506 2.016694,-0.136683 0.960502,-1.020187 2.170567,-3.167372 3.380752,-5.314798"
     stroke="#000000"
     id="path16"
     style="stroke-width:0.601065" />
  <path
     d="m 92.45297,20.986045 c 1.04465,0.736004 2.0881,1.471529 3.13215,2.75288 1.044051,1.281351 2.0881,3.108288 2.88872,4.886359 0.801219,1.778011 1.359609,3.507096 1.194316,4.529687 -0.165293,1.022593 -1.054269,1.339415 -1.867509,0.997228 -0.812641,-0.342186 -1.549547,-1.344163 -2.214926,-2.402758 -0.664778,-1.058596 -1.258029,-2.173692 -1.851881,-3.28963"
     stroke="#000000"
     id="path18"
     style="stroke-width:0.601065" />
  <path
     d="m 52.141869,10.83135 c 0.830792,0.593431 2.491596,1.779753 3.345469,2.53908 0.853873,0.759385 0.901357,1.091534 0.09461,1.63682 -0.80663,0.545287 -2.467493,1.304552 -3.286144,1.779453 -0.818591,0.474902 -0.794789,0.664779 -0.711721,1.020729 0.08319,0.355951 0.225579,0.877856 -0.462701,2.028295 -0.68822,1.150438 -2.20663,2.929832 -6.38229,4.305911 -4.175661,1.376078 -11.008569,2.348843 -17.462267,2.953875 C 20.823128,27.700605 14.749483,27.937846 10.64481,27.712566 6.5400731,27.487287 4.4047288,26.799247 2.8741342,25.162367 1.3435337,23.525426 0.41820341,20.939283 0.31126009,17.54627 0.20431676,14.153196 0.91609216,9.9537935 2.0550627,7.2012155 3.1940092,4.4486314 4.7599403,3.1436827 6.9548682,2.2183368 9.1498381,1.2929728 11.973222,0.74728381 16.362741,0.48631993 20.75226,0.22535424 26.707434,0.2489172 31.393459,0.49821379 c 4.686084,0.24915416 8.102599,0.72365901 10.688802,1.68484051 2.586204,0.9611634 4.341855,2.4084563 5.551859,3.6660591 1.209885,1.2576147 1.874242,2.3252268 2.396387,3.0251071 0.522085,0.6998804 0.901658,1.032029 1.091114,1.1978025 0.189395,0.165894 0.189395,0.165894 1.020188,0.759327 z"
     stroke="#000000"
     id="path20"
     style="stroke-width:0.601065" />
  <path
     d="M 8.3899715,8.4584637 C 8.4610775,7.9132975 8.5321234,7.3675303 8.6628552,7.0469222 8.7935267,6.7263139 8.983283,6.6314058 9.4224813,6.7265544 9.8616796,6.8215829 10.549719,7.1063675 10.952793,7.4862407 11.355867,7.8660538 11.474457,8.3405948 11.320224,8.7435489 11.16599,9.146503 10.738874,9.4786516 10.22905,9.6329451 9.7191672,9.7871784 9.126036,9.7636167 8.5208235,8.8504183 7.9156108,7.9373402 7.2987376,6.1342045 6.6815639,4.3302095"
     stroke="#000000"
     id="path22"
     style="stroke-width:0.601065" />
  <path
     d="M 14.013116,7.9601806 C 14.654273,7.8650921 15.294888,7.7703041 15.638637,7.474039 15.982387,7.177774 16.029871,6.679551 15.911582,6.3354412 15.793231,5.9913915 15.508627,5.801557 15.128754,5.8487347 14.74882,5.8957859 14.27428,6.1806068 14.036919,6.6674096 c -0.237421,0.4867426 -0.237421,1.1747819 -0.166135,1.7442912 0.07135,0.5695093 0.213679,1.0203082 0.676559,1.2096437 0.462821,0.1894559 1.245768,0.1181695 2.028175,0.047063"
     stroke="#000000"
     id="path24"
     style="stroke-width:0.601065" />
  <path
     d="m 16.931468,3.262381 c 0.56963,2.2310279 1.139079,4.4613406 1.708349,6.6908714"
     stroke="#000000"
     id="path26"
     style="stroke-width:0.601065" />
  <path
     d="m 19.921047,6.5366178 c 0.11853,0.9972272 0.23736,1.9937333 0.355831,2.989518"
     stroke="#000000"
     id="path28"
     style="stroke-width:0.601065" />
  <path
     d="m 19.600739,4.4368204 c 0.176894,0 0.320308,-0.1434081 0.320308,-0.3203077 0,-0.1768994 -0.143414,-0.3203076 -0.320308,-0.3203076 -0.176893,0 -0.320308,0.1434082 -0.320308,0.3203076 0,0.1768996 0.143415,0.3203077 0.320308,0.3203077 z"
     fill="#000000"
     id="path30"
     style="stroke-width:0.601065" />
  <path
     d="m 22.803815,6.8569254 c 0.391896,-0.1069295 0.783429,-0.2136186 1.067853,-0.4269967 0.284364,-0.2133782 0.46234,-0.5336799 0.450799,-0.8240905 -0.01184,-0.2904107 -0.213137,-0.5513812 -0.509884,-0.611103 -0.296686,-0.059649 -0.688099,0.082712 -0.919689,0.4388558 -0.23147,0.3562392 -0.302757,0.9255923 -0.278955,1.5426459 0.02374,0.6169934 0.142332,1.2812907 0.439259,1.6427713 0.296865,0.3615407 0.771467,0.4208658 1.156749,0.3733216 0.385343,-0.047484 0.681909,-0.2017775 0.978235,-0.3558907"
     stroke="#000000"
     id="path32"
     style="stroke-width:0.601065" />
  <path
     d="m 25.811125,5.4511661 c 0.326439,1.0684415 0.652697,2.1361136 0.910915,2.6814601 0.258217,0.5453465 0.448093,0.5690285 0.681968,-0.018994 0.233875,-0.5870603 0.512709,-1.7852238 0.791603,-2.983868"
     stroke="#000000"
     id="path34"
     style="stroke-width:0.601065" />
  <path
     d="m 30.081873,7.0704839 c 0.735886,-0.2492618 1.471409,-0.4984034 1.856812,-0.8539334 0.385343,-0.3555421 0.420986,-0.818182 0.210793,-1.1534622 -0.210132,-0.3352802 -0.666882,-0.5428279 -1.159575,-0.412523 -0.492693,0.1302327 -1.020548,0.5988833 -1.15693,1.3348155 -0.136382,0.7359443 0.11859,1.7382807 0.717972,2.1708673 0.599262,0.4326467 1.542394,0.296265 2.484984,0.1600035"
     stroke="#000000"
     id="path36"
     style="stroke-width:0.601065" />
  <path
     d="m 36.7552,6.6101882 c 0.176293,1.1164185 0.352405,2.2320556 0.528457,3.3470313"
     stroke="#000000"
     id="path38"
     style="stroke-width:0.601065" />
  <path
     d="m 36.277054,4.5465569 c 0.236278,0 0.427777,-0.1915173 0.427777,-0.4277961 0,-0.2362727 -0.191499,-0.4278262 -0.427777,-0.4278262 -0.23628,0 -0.427839,0.1915535 -0.427839,0.4278262 0,0.2362788 0.191559,0.4277961 0.427839,0.4277961 z"
     fill="#000000"
     id="path40"
     style="stroke-width:0.601065" />
  <path
     d="M 43.449264,9.1519126 C 43.281747,8.3557417 43.113869,7.5588494 42.921108,6.992646 42.728346,6.4263823 42.51022,6.0908077 42.237636,5.9269032 41.965114,5.7629206 41.638014,5.7714436 41.289576,5.9221127 40.941139,6.0730161 40.572085,6.3666966 40.41689,7.2227337 40.261694,8.0787707 40.320359,9.496323 40.23651,9.3369806 40.152602,9.1777584 39.926181,7.4412209 39.699578,5.7040643"
     stroke="#000000"
     id="path42"
     style="stroke-width:0.601065" />
  <path
     d="m 5.7385647,16.377198 c 0.3977128,1.003178 0.7951371,2.005634 1.0739112,2.711465 0.278774,0.705951 0.4388978,1.115096 0.6404349,1.183017 0.2015372,0.06768 0.4447282,-0.205144 0.6938096,-0.735765 0.2490815,-0.530679 0.5041134,-1.319578 0.6761984,-1.98682 0.1720249,-0.667243 0.2609826,-1.21295 0.3681525,-1.432338 0.1071698,-0.21939 0.2317106,-0.11264 0.1839259,0.738408 -0.047784,0.851228 -0.2672336,2.446816 -0.5223257,3.88222 -0.255092,1.435404 -0.5457672,2.710684 -0.8363221,3.985543"
     stroke="#000000"
     id="path44"
     style="stroke-width:0.601065" />
  <path
     d="m 12.082435,17.252168 c -0.216504,0.299692 -0.406441,0.726809 -0.441903,1.228217 -0.0354,0.501468 0.08313,1.076809 0.302877,1.474113 0.219809,0.397364 0.540117,0.616812 0.898953,0.726327 0.358776,0.109513 0.7562,0.109513 1.138417,-0.16331 0.382278,-0.272824 0.750009,-0.818471 0.800619,-1.402465 0.05061,-0.583935 -0.216263,-1.206758 -0.601666,-1.631051 -0.385343,-0.424352 -0.889517,-0.649751 -1.263559,-0.676619 -0.373983,-0.02687 -0.617114,0.145217 -0.833738,0.444849 z"
     stroke="#000000"
     id="path46"
     style="stroke-width:0.601065" />
  <path
     d="m 16.682387,17.177936 c -0.118831,0.386005 -0.237421,0.771528 -0.272944,1.216497 -0.0354,0.445029 0.0119,0.949201 0.104165,1.328894 0.0922,0.379694 0.228585,0.634726 0.439078,0.720317 0.210553,0.08553 0.495278,0.0023 0.773872,-0.166614 0.278593,-0.16896 0.551477,-0.424113 0.732338,-0.951728 0.18086,-0.527615 0.269878,-1.328414 0.332268,-1.663388 0.06251,-0.335034 0.09791,-0.204602 0.198652,0.314478 0.100799,0.51902 0.266873,1.426448 0.432828,2.333335"
     stroke="#000000"
     id="path48"
     style="stroke-width:0.601065" />
  <path
     d="m 21.540376,20.096289 c -0.08295,-1.256827 -0.166133,-2.514316 -0.183505,-3.122414 -0.01659,-0.608098 0.02999,-0.566504 0.05776,-0.306182 0.02783,0.260261 0.03666,0.73919 0.04117,0.978353 0.0047,0.239164 0.0047,0.239164 0.126404,-0.03113 0.122136,-0.270239 0.366469,-0.811078 0.674394,-1.063044 0.307926,-0.251966 0.678663,-0.21482 1.048679,-0.177735"
     stroke="#000000"
     id="path50"
     style="stroke-width:0.601065" />
  <path
     d="m 27.02119,15.665356 c -0.444188,-0.0473 -0.889096,-0.09479 -1.274859,-0.02663 -0.385825,0.06822 -0.712082,0.252026 -0.842574,0.516375 -0.130491,0.264408 -0.06509,0.608398 0.207969,0.759326 0.273064,0.150867 0.753555,0.109334 1.153984,0.145217 0.400491,0.03588 0.720798,0.148524 0.895407,0.412571 0.17467,0.264169 0.204183,0.679385 -0.02398,1.034855 -0.228405,0.35553 -0.714667,0.652155 -1.117801,0.797673 -0.403134,0.145698 -0.723502,0.139988 -1.044351,0.134518"
     stroke="#000000"
     id="path52"
     style="stroke-width:0.601065" />
  <path
     d="m 29.423467,17.658368 c 0.575881,-0.08319 1.15122,-0.166134 1.521657,-0.385463 0.370376,-0.219328 0.53645,-0.575159 0.587,-0.945656 0.05061,-0.370496 -0.01425,-0.756019 -0.275408,-1.026199 -0.260682,-0.270118 -0.717431,-0.424351 -1.127177,-0.243491 -0.409687,0.180861 -0.771468,0.696875 -0.922635,1.239938 -0.151168,0.543002 -0.09172,1.112451 0.08932,1.649263 0.181101,0.536871 0.483618,1.041044 0.969999,1.147373 0.486322,0.106208 1.156571,-0.184407 1.826518,-0.474842"
     stroke="#000000"
     id="path54"
     style="stroke-width:0.601065" />
  <path
     d="m 33.249307,12.978354 c 0.0119,0.149004 0.0238,0.297227 0.195888,1.388701 0.172024,1.091475 0.504233,3.12596 0.836262,5.159784"
     stroke="#000000"
     id="path56"
     style="stroke-width:0.601065" />
  <path
     d="m 36.701586,19.295489 c -0.361721,-1.677933 -0.723563,-3.356528 -0.886752,-4.554812 -0.163249,-1.198224 -0.127667,-1.915955 0.0473,-2.390857 0.17515,-0.474902 0.489387,-0.706191 0.91975,-0.682209 0.430363,0.02398 0.97607,0.302757 1.32577,0.632081 0.34976,0.329383 0.504052,0.709077 0.657925,1.087928"
     stroke="#000000"
     id="path58"
     style="stroke-width:0.601065" />
  <path
     d="m 34.797471,15.558607 c 0.902199,-0.124541 1.803736,-0.249202 2.704853,-0.373682"
     stroke="#000000"
     id="path60"
     style="stroke-width:0.601065" />
  <path
     d="m 41.103907,18.683125 c 0.201477,0 0.364787,-0.16337 0.364787,-0.364847 0,-0.201477 -0.16331,-0.364786 -0.364787,-0.364786 -0.201477,0 -0.364786,0.163309 -0.364786,0.364786 0,0.201477 0.163309,0.364847 0.364786,0.364847 z"
     fill="#000000"
     id="path62"
     style="stroke-width:0.601065" />
  <path
     d="m 40.211806,13.629488 c 0.201537,1.007326 0.402834,2.013989 0.604011,3.019872"
     stroke="#000000"
     id="path64"
     style="stroke-width:0.601065" />
</svg>
