<?xml version="1.0" encoding="UTF-8" standalone="no"?>
<svg
   width="100"
   height="74.657997"
   viewBox="0 0 100 74.657997"
   fill="none"
   version="1.1"
   id="svg"
   sodipodi:docname="2.svg"
   inkscape:version="1.1-alpha (ae80b40, 2021-03-23)"
   xmlns:inkscape="http://www.inkscape.org/namespaces/inkscape"
   xmlns:sodipodi="http://sodipodi.sourceforge.net/DTD/sodipodi-0.dtd"
   xmlns="http://www.w3.org/2000/svg"
   xmlns:svg="http://www.w3.org/2000/svg">
  <defs
     id="defs56" />
  <sodipodi:namedview
     id="namedview54"
     pagecolor="#505050"
     bordercolor="#eeeeee"
     borderopacity="1"
     objecttolerance="10.0"
     gridtolerance="10.0"
     guidetolerance="10.0"
     inkscape:pageshadow="0"
     inkscape:pageopacity="0"
     inkscape:pagecheckerboard="0"
     showgrid="false"
     units="mm"
     inkscape:zoom="6.5714286"
     inkscape:cx="7.0760869"
     inkscape:cy="30.815217"
     inkscape:window-width="1920"
     inkscape:window-height="1009"
     inkscape:window-x="1912"
     inkscape:window-y="-8"
     inkscape:window-maximized="1"
     inkscape:current-layer="svg" />
  <path
     d="m 13.321379,74.277831 c 5.737409,-0.08684 17.211542,-0.261141 23.086955,-0.494168 5.875415,-0.232403 6.152737,-0.523531 6.303798,-3.307365 0.150874,-2.783834 0.175615,-8.061624 0.07703,-11.723528 -0.09852,-3.662154 -0.320552,-5.708921 -0.80135,-8.113351 C 41.507013,48.234988 40.767135,45.472957 39.916366,42.661634 39.065598,39.85025 38.103813,36.989635 37.0928,34.301573 36.081722,31.613511 35.021292,29.09819 33.948678,27.236157 32.876065,25.374187 31.79102,24.16588 30.521052,23.068402 c -1.270031,-1.097539 -2.724984,-2.083939 -3.908677,-2.712925 -1.183754,-0.628987 -2.096184,-0.900249 -3.20597,-1.036004 -1.109846,-0.135881 -2.4168,-0.135881 -3.958404,0.36972 -1.541542,0.505476 -3.317048,1.516615 -4.796803,2.614093 -1.479818,1.097477 -2.663509,2.281107 -3.724003,3.625231 -1.0604941,1.344124 -1.9975391,2.848433 -2.7250469,4.833788 -0.7275078,1.985419 -1.245416,4.451511 -1.6892925,7.077911 -0.4438766,2.626462 -0.813778,5.413046 -0.8753834,8.384801 -0.061505,2.971756 0.18501,6.128308 0.4686162,10.222094 0.2836312,4.093723 0.6041845,9.124367 0.8385239,12.194956 0.2341519,3.069964 0.3822773,4.180124 0.4745512,4.807361 0.092337,0.627237 0.1286961,0.771552 0.1469385,0.844022 0.017305,0.07184 0.017305,0.07184 5.755278,-0.01499 z"
     stroke="#000000"
     id="path2"
     style="stroke-width:0.624738" />
  <path
     d="m 10.286025,74.374665 c -0.09852,-3.772169 -0.197355,-7.54559 -0.271262,-11.318384 -0.07384,-3.77342 -0.1232609,-7.546402 -0.07409,-11.566156 0.04942,-4.019817 0.197354,-8.286092 0.591815,-11.566094 0.394521,-3.280064 1.03569,-5.573479 1.89883,-7.694403 0.863138,-2.120986 1.948184,-4.069108 2.910156,-5.277664 0.961972,-1.208557 1.396921,-1.582957 2.038402,-1.755448 0.641419,-0.172365 1.340917,-0.0088 1.735188,0.829958 0.394273,0.838774 0.712603,2.688282 1.156728,3.464707 0.444127,0.776424 1.565018,0.776424 2.082551,0.01237 0.51747,-0.764305 0.418883,-2.548786 0.83827,-3.424543 0.419387,-0.875696 0.966373,-1.124504 1.533886,-1.136687 0.56745,-0.01237 1.343231,0.03703 2.267907,0.740237 0.924675,0.70308 1.985106,1.911449 3.20572,4.020004 1.220614,2.108617 2.601597,5.117169 3.661904,8.323076 1.060367,3.20597 1.800121,6.609107 2.453659,9.704062 0.653539,3.094953 1.220739,5.881599 1.479568,8.791567 0.258892,2.909969 0.209475,5.943386 0.271199,8.791569 0.06172,2.848182 0.234402,5.511441 0.406893,8.174077"
     stroke="#000000"
     id="path4"
     style="stroke-width:0.624738"
     sodipodi:nodetypes="cccccscssccccccscsc" />
  <path
     d="m 36.62387,73.931101 c -0.147938,-1.676173 -0.295876,-3.353595 -0.603997,-4.648053 -0.308059,-1.294458 -0.776613,-2.207201 -1.590335,-2.627025 -0.813721,-0.419199 -1.972798,-0.34548 -2.799327,0.296126 -0.826467,0.640982 -1.319698,1.849226 -1.553849,3.131814 -0.234153,1.282588 -0.209475,2.638894 -0.184798,3.994576"
     stroke="#000000"
     id="path6"
     style="stroke-width:0.624738" />
  <path
     d="m 18.68307,74.300947 c -0.110891,-1.676174 -0.221781,-3.353596 -0.554579,-4.635559 -0.332736,-1.282588 -0.887567,-2.170342 -1.701288,-2.675755 -0.813722,-0.506038 -1.88646,-0.629736 -2.669883,-0.173052 -0.783358,0.456684 -1.276589,1.491876 -1.523111,2.823817 -0.246521,1.331942 -0.246521,2.96001 -0.246521,4.586829"
     stroke="#000000"
     id="path8"
     style="stroke-width:0.624738" />
  <path
     d="m 37.733655,36.125747 c 1.603578,1.578901 3.206531,3.15724 4.574272,4.851656 1.367676,1.694477 2.500264,3.504844 3.350097,5.243491 0.849893,1.738709 1.417031,3.405261 1.582275,4.835537 0.165243,1.430214 -0.07116,2.624152 -0.531216,2.982376 -0.459995,0.358225 -1.144521,-0.119325 -2.048954,-1.061493 C 43.755695,52.035208 42.630916,50.627611 41.5067,49.2207"
     stroke="#000000"
     id="path10"
     style="stroke-width:0.624738" />
  <path
     d="M 6.438948,37.975285 C 5.3783797,39.899042 4.3179863,41.822673 3.3931736,43.857259 2.4683859,45.891844 1.6792414,48.037321 1.12438,50.232276 0.56954362,52.42717 0.24897475,54.671293 0.3232755,56.064708 c 0.0743508,1.393417 0.54288135,1.93594 1.0728907,2.034211 0.5300156,0.09827 1.1218864,-0.247021 1.8861913,-1.553849 0.7643299,-1.306828 1.7014125,-3.575628 2.6386762,-5.84474"
     stroke="#000000"
     id="path12"
     style="stroke-width:0.624738" />
  <path
     d="m 17.418975,32.095809 c 0.288941,0 0.523156,-0.234214 0.523156,-0.523156 0,-0.288879 -0.234215,-0.523093 -0.523156,-0.523093 -0.28888,0 -0.523093,0.234214 -0.523093,0.523093 0,0.288942 0.234213,0.523156 0.523093,0.523156 z"
     fill="#000000"
     id="path14"
     style="stroke-width:0.624738" />
  <path
     d="m 24.533682,31.991104 c 0.288942,0 0.523157,-0.234153 0.523157,-0.523094 0,-0.288879 -0.234215,-0.523156 -0.523157,-0.523156 -0.288878,0 -0.523155,0.234277 -0.523155,0.523156 0,0.288941 0.234277,0.523094 0.523155,0.523094 z"
     fill="#000000"
     id="path16"
     style="stroke-width:0.624738" />
  <path
     d="m 19.694896,34.24947 c 0.375281,-0.06104 1.037879,-0.0611 1.456453,0.01724 0.418575,0.07878 0.592877,0.235651 0.557642,1.037815 -0.0353,0.802101 -0.279383,2.249433 -0.444627,2.97288 -0.165243,0.723384 -0.252456,0.723384 -0.592752,-0.01731 -0.340232,-0.74069 -0.933108,-2.222944 -1.186128,-3.025483 -0.252956,-0.802539 -0.165743,-0.924551 0.209475,-0.985587 z"
     stroke="#000000"
     id="path18"
     style="stroke-width:0.624738" />
  <path
     d="m 38.483715,24.941993 c 1.171634,-0.234401 3.514404,-0.702893 4.685538,-0.937108 1.171135,-0.234151 1.171135,-0.234214 1.121843,0.255144 -0.04942,0.489357 -0.148001,1.467573 0.01231,2.959572 0.160308,1.492 0.577571,3.487853 2.5668,5.501446 1.989292,2.013532 5.510318,4.005073 9.295795,4.814547 3.785415,0.809473 7.817601,0.427196 11.757201,0.10052 3.9396,-0.326738 7.786114,-0.598 11.756951,-1.288585 3.970212,-0.690523 8.063498,-1.800246 10.986023,-3.366153 2.921903,-1.565907 4.673044,-3.588059 6.016856,-5.59372 1.343812,-2.005597 2.28092,-3.994827 2.712614,-6.678577 0.431686,-2.683689 0.357976,-6.062212 -0.04873,-8.762519 C 98.939584,9.2461912 98.199893,7.224038 96.178241,5.3866013 94.155962,3.5491584 90.851722,1.8968878 86.683467,1.0335556 82.515837,0.17022282 77.485444,0.09618321 71.936518,0.73730471 66.387592,1.3784237 60.32107,2.7347494 54.785638,4.8776957 49.250269,7.0206232 44.246739,9.9500215 41.819256,12.509762 c -2.427483,2.559741 -2.278358,4.748636 -1.822986,5.984119 0.455433,1.235483 1.216365,1.517677 0.79498,2.373756 -0.421324,0.856079 -2.025153,2.287105 -2.801515,3.100889 -0.776363,0.813846 -0.727008,1.011263 -0.702456,1.109473 0.02468,0.09833 0.02468,0.09833 1.196311,-0.135881 z"
     stroke="#000000"
     id="path20"
     style="stroke-width:0.624738" />
  <path
     d="m 51.449036,12.713927 c 0.130945,1.072801 0.392398,3.217715 0.628112,4.394721 0.235651,1.177071 0.444938,1.386295 0.889502,1.385858 0.444626,-3.75e-4 1.124654,-0.209725 1.77838,-0.584506 0.653726,-0.374905 1.281463,-0.915428 1.70866,-1.708596 0.427134,-0.793168 0.653788,-1.839418 0.662722,-2.711177 0.0099,-0.871761 -0.200353,-1.569281 -0.531527,-2.16222 -0.331111,-0.592939 -0.784484,-1.081172 -1.290147,-1.3779235 -0.505601,-0.2966879 -1.06368,-0.4013316 -1.543542,-0.2531436 -0.479924,0.148188 -0.881005,0.5492081 -1.220989,0.8805071 -0.340045,0.331298 -0.619052,0.592876 -0.810848,0.758494 -0.191669,0.165493 -0.296375,0.235402 -0.348728,0.270324 -0.05235,0.0348 -0.05242,0.0348 0.07853,1.107662 z"
     stroke="#000000"
     id="path22"
     style="stroke-width:0.624738" />
  <path
     d="m 58.886233,14.413903 c 0.139317,-0.261454 0.418451,-0.784609 0.767429,-1.133526 0.348979,-0.348917 0.767492,-0.523344 1.125154,-0.453185 0.3576,0.07016 0.654039,0.384089 0.828091,0.758994 0.174177,0.374969 0.226279,0.81091 0.173927,1.299019 -0.05242,0.488108 -0.209475,1.028694 -0.453436,1.446957 -0.244084,0.418324 -0.575383,0.7147 -0.932484,0.819469 -0.3571,0.104706 -0.740752,0.01731 -1.072176,-0.243773 -0.331486,-0.261329 -0.610494,-0.697208 -0.69802,-1.098478 -0.0874,-0.401206 0.01737,-0.767491 0.06947,-0.950789 0.05235,-0.183298 0.05235,-0.183298 0.191919,-0.444751 z"
     stroke="#000000"
     id="path24"
     style="stroke-width:0.624738" />
  <path
     d="m 67.587714,17.395653 c -0.05248,-0.836274 -0.104331,-1.673299 -0.269887,-2.370757 -0.165556,-0.69752 -0.444813,-1.255536 -0.802164,-1.430339 -0.35735,-0.174864 -0.793418,0.03436 -1.137024,0.366972 -0.343606,0.332549 -0.59475,0.788045 -0.769052,1.586024 -0.174928,0.797978 -0.272386,1.938001 -0.347355,1.697226 -0.07434,-0.240836 -0.126822,-1.862469 -0.1793,-3.484915"
     stroke="#000000"
     id="path26"
     style="stroke-width:0.624738" />
  <path
     d="m 68.163099,10.102333 c 0.314243,0.888565 0.629111,1.776319 0.942729,2.663384"
     stroke="#000000"
     id="path28"
     style="stroke-width:0.624738" />
  <path
     d="m 71.159343,13.487041 c 1.251976,-0.25908 2.503327,-0.517971 3.754678,-0.7768"
     stroke="#000000"
     id="path30"
     style="stroke-width:0.624738" />
  <path
     d="m 72.380082,10.083841 c 0.481049,2.251057 0.961473,4.501365 1.442521,6.750923"
     stroke="#000000"
     id="path32"
     style="stroke-width:0.624738" />
  <path
     d="m 81.372566,13.78604 c -0.305497,0.470991 -0.610369,0.941794 -0.993958,1.39073 -0.38359,0.448937 -0.845897,0.876134 -1.233859,1.094104 -0.387338,0.217909 -0.700956,0.226781 -0.928361,0.04848 -0.22678,-0.178363 -0.366097,-0.544522 -0.327363,-1.011201 0.03936,-0.46668 0.257393,-1.033442 0.671594,-1.513241 0.414201,-0.479737 1.024571,-0.872073 1.417531,-1.033131 0.392335,-0.161057 0.566638,-0.0914 0.9546,0.436255 0.387962,0.527779 0.989586,1.512991 1.381922,2.393623 0.39171,0.880631 0.574759,1.656618 0.413576,2.423547 -0.161807,0.766992 -0.66722,1.525486 -1.190126,2.122674 -0.522907,0.597125 -1.063305,1.033005 -1.616823,1.259722 -0.553519,0.22678 -1.120156,0.244085 -1.516865,0.07434 -0.397333,-0.169675 -0.623489,-0.52715 -0.850893,-0.885312"
     stroke="#000000"
     id="path34"
     style="stroke-width:0.624738" />
  <path
     d="m 84.354442,12.922839 c 0.218034,0.994771 0.436068,1.988668 0.653476,2.981876"
     stroke="#000000"
     id="path36"
     style="stroke-width:0.624738" />
  <path
     d="m 87.022075,12.896725 c 0.39296,0.84652 0.785296,1.692229 1.016449,2.114739 0.231154,0.422449 0.301124,0.422449 0.505413,-0.209537 0.204291,-0.631923 0.544773,-1.896081 0.88463,-3.160801"
     stroke="#000000"
     id="path38"
     style="stroke-width:0.624738" />
  <path
     d="m 91.455843,13.65522 c 0.317992,-0.01231 0.636608,-0.02618 0.96647,-0.104956 0.329237,-0.07878 0.668471,-0.222344 0.987088,-0.485922 0.317991,-0.263639 0.614117,-0.647229 0.705953,-1.039252 0.09184,-0.391961 -0.02249,-0.793105 -0.296126,-0.95916 -0.27426,-0.165993 -0.710327,-0.09633 -1.129527,0.195855 -0.418575,0.29219 -0.819656,0.806599 -1.046436,1.377923 -0.22678,0.571323 -0.278633,1.199123 -0.239275,1.630817 0.03936,0.431694 0.170553,0.667033 0.357975,0.832464 0.188046,0.165493 0.431694,0.26139 0.880257,0.121574 0.449187,-0.139817 1.102663,-0.51466 1.756764,-0.88944"
     stroke="#000000"
     id="path40"
     style="stroke-width:0.624738" />
  <path
     d="m 83.622249,10.555706 c 0.158684,0 0.287379,-0.128821 0.287379,-0.287755 0,-0.158933 -0.128695,-0.2877543 -0.287379,-0.2877543 -0.159308,0 -0.288004,0.1288213 -0.288004,0.2877543 0,0.158934 0.128696,0.287755 0.288004,0.287755 z"
     fill="#000000"
     id="path42"
     style="stroke-width:0.624738" />
  <path
     d="m 56.991402,24.436455 c -0.160308,0.69096 -0.320678,1.381546 -0.160058,2.041395 0.160558,0.659911 0.641419,1.288586 1.30108,1.429901 0.659598,0.141315 1.497936,-0.20379 1.861596,-1.159077 0.363597,-0.955225 0.252643,-2.521069 0.338983,-2.397746 0.08646,0.123261 0.369969,1.935814 0.653476,3.747743"
     stroke="#000000"
     id="path44"
     style="stroke-width:0.624738" />
  <path
     d="m 64.167897,26.766916 c 0.444189,0.172927 0.888377,0.345606 1.350684,0.376156 0.462306,0.03067 0.943355,-0.08022 1.343812,-0.394586 0.400457,-0.314306 0.720948,-0.832151 0.899623,-1.386793 0.178675,-0.554706 0.216159,-1.146521 0.06185,-1.547353 -0.153686,-0.400831 -0.499167,-0.610432 -0.985838,-0.68465 -0.487296,-0.07434 -1.116408,-0.01237 -1.671175,0.160058 -0.555392,0.172615 -1.035816,0.456184 -1.288835,0.666221 -0.25302,0.209974 -0.278009,0.345417 -0.04935,1.843727 0.228029,1.498373 0.709077,4.358924 1.189501,7.218852"
     stroke="#000000"
     id="path46"
     style="stroke-width:0.624738" />
  <path
     d="m 70.88196,27.321747 c 0.193669,0 0.351103,-0.15731 0.351103,-0.351416 0,-0.194044 -0.157434,-0.351416 -0.351103,-0.351416 -0.194294,0 -0.351728,0.157372 -0.351728,0.351416 0,0.194106 0.157434,0.351416 0.351728,0.351416 z"
     fill="#000000"
     id="path48"
     style="stroke-width:0.624738" />
  <path
     d="m 69.619988,20.663347 0.962098,4.697908"
     stroke="#000000"
     id="path50"
     style="stroke-width:0.624738" />
</svg>
