<?xml version="1.0" encoding="UTF-8" standalone="no"?>
<svg
   width="51.409"
   height="100"
   viewBox="0 0 51.409 100"
   fill="none"
   version="1.1"
   id="svg"
   sodipodi:docname="3.svg"
   inkscape:version="1.1-alpha (ae80b40, 2021-03-23)"
   xmlns:inkscape="http://www.inkscape.org/namespaces/inkscape"
   xmlns:sodipodi="http://sodipodi.sourceforge.net/DTD/sodipodi-0.dtd"
   xmlns="http://www.w3.org/2000/svg"
   xmlns:svg="http://www.w3.org/2000/svg">
  <defs
     id="defs64" />
  <sodipodi:namedview
     id="namedview62"
     pagecolor="#505050"
     bordercolor="#eeeeee"
     borderopacity="1"
     objecttolerance="10.0"
     gridtolerance="10.0"
     guidetolerance="10.0"
     inkscape:pageshadow="0"
     inkscape:pageopacity="0"
     inkscape:pagecheckerboard="0"
     showgrid="false"
     inkscape:zoom="11.210884"
     inkscape:cx="22.344357"
     inkscape:cy="48.479672"
     inkscape:window-width="1920"
     inkscape:window-height="1009"
     inkscape:window-x="1912"
     inkscape:window-y="-8"
     inkscape:window-maximized="1"
     inkscape:current-layer="svg" />
  <path
     d="m 15.807943,99.613776 c 5.503831,-0.0555 16.510671,-0.166443 22.045735,-0.274662 5.534996,-0.108904 5.598968,-0.215753 5.428489,-3.083559 -0.170548,-2.867806 -0.575684,-8.497938 -0.874246,-13.285606 -0.298561,-4.786982 -0.490479,-8.732184 -0.874314,-12.602729 -0.383835,-3.870476 -0.959588,-7.666226 -1.4713,-10.321224 -0.511781,-2.65493 -0.959589,-4.168969 -1.417944,-5.35253 -0.458425,-1.183561 -0.927534,-2.036505 -1.567259,-3.092121 -0.639726,-1.055684 -1.450068,-2.313834 -2.377601,-3.465408 -0.927602,-1.151643 -1.972464,-2.196505 -2.979998,-2.98034 -1.007602,-0.783835 -1.977875,-1.3063 -3.113422,-1.711642 -1.135615,-0.405274 -2.436436,-0.69315 -3.731983,-0.799931 -1.295615,-0.106712 -2.585751,-0.03192 -3.796161,0.335753 -1.21041,0.367876 -2.340615,1.028903 -3.503011,2.047327 -1.162328,1.018355 -2.356505,2.393765 -3.337532,3.854654 -0.981026,1.46089 -1.748697,3.006916 -2.473765,4.904996 -0.725067,1.898012 -1.407396,4.147737 -1.812532,7.437323 -0.405137,3.289518 -0.533082,7.618487 -0.634383,11.697251 -0.101233,4.078078 -0.175891,7.906157 -0.200343,10.369854 -0.02438,2.464382 0.0012,3.565066 0.07582,5.95479 0.07459,2.390409 0.198219,6.069858 0.289452,7.9815 0.09123,1.910957 0.149657,2.054108 0.281575,2.166437 0.131986,0.111647 0.336849,0.193837 0.438904,0.234247 0.102055,0.0411 0.102055,0.0411 5.605817,-0.013 z"
     stroke="#000000"
     id="path2"
     style="stroke-width:0.684931" />
  <path
     d="m 9.977811,60.471543 c -0.687739,0.794452 -1.3756153,1.588903 -1.9260258,2.2913 -0.5504106,0.702397 -0.9636294,1.313012 -1.4008208,2.003423 -0.4371914,0.690479 -0.8982801,1.460615 -1.4167591,2.528285 -0.518479,1.067876 -1.0942525,2.432259 -1.4674235,3.504176 -0.3731709,1.071917 -0.5437735,1.849998 -0.6877117,2.569861 -0.1439314,0.719862 -0.2612258,1.38082 -0.2904313,1.927395 -0.029219,0.546575 0.029452,0.978082 0.1281574,1.391095 0.09874,0.413698 0.2373355,0.808218 0.4695476,1.098629 0.2322258,0.290411 0.5573625,0.476712 0.9198622,0.585616 0.3624997,0.109589 0.7623282,0.141096 1.1725676,0.05548 0.4102325,-0.08493 0.8314376,-0.287671 1.2604784,-0.59726 C 7.1682927,77.520639 7.6054841,77.104886 8.0265797,76.529544 8.4476752,75.953517 8.8528119,75.217901 9.258086,74.4816"
     stroke="#000000"
     id="path4"
     style="stroke-width:0.684931" />
  <path
     d="m 40.331553,61.283392 c 0.982465,1.009177 1.964177,2.017601 2.768696,3.026162 0.804452,1.008492 1.431917,2.016916 1.980889,3.081436 0.548972,1.064588 1.019588,2.185135 1.378081,3.294038 0.358493,1.109588 0.604931,2.207533 0.772945,3.260956 0.168013,1.053424 0.257671,2.061642 0.08959,2.767121 -0.168082,0.705479 -0.593904,1.108904 -1.232122,1.120547 -0.638288,0.01027 -1.489862,-0.369862 -2.195821,-0.851369 -0.706026,-0.481506 -1.2663,-1.064383 -1.827258,-1.647944"
     stroke="#000000"
     id="path6"
     style="stroke-width:0.684931" />
  <path
     d="m 13.891027,99.354183 c -0.06027,-4.975339 -0.120616,-9.951362 -0.150753,-14.904783 -0.03021,-4.95342 -0.03021,-9.884238 0.09041,-13.895194 0.120616,-4.011161 0.361917,-7.102391 0.904725,-9.952457 0.542808,-2.850066 1.38719,-5.458694 2.28445,-7.494515 0.897191,-2.03582 1.84719,-3.498421 2.735751,-4.517804 0.88863,-1.019314 1.224896,-1.349741 1.695773,-1.558195 0.470903,-0.208464 0.886802,-0.303316 1.116846,0.129811 0.195867,0.36878 0.276686,1.029071 0.446625,1.677562 0.169923,0.648426 0.407739,1.296779 0.678561,1.663697 0.270822,0.366917 0.931042,0.386046 1.202412,0.217895 0.271301,-0.16815 0.555555,-0.818223 0.647621,-1.491627 0.126653,-0.926384 0.168206,-1.345689 0.281288,-1.941374 0.113082,-0.595616 0.485621,-0.762786 1.044045,-0.770457 0.558425,-0.0082 1.212507,0.166525 2.200178,0.649401 0.98767,0.48274 1.907464,1.206506 2.706504,2.216916 0.799041,1.010479 1.477602,2.307259 2.103286,3.702121 0.625753,1.394861 1.198766,2.8876 1.651026,4.38801 0.452329,1.500341 0.784041,3.008216 1.070479,5.096708 0.286438,2.088423 0.527739,4.757393 0.708629,7.17746 0.180959,2.420546 0.301575,4.591777 0.407123,7.471911 0.105548,2.880135 0.196028,6.468488 0.399657,10.253416 0.203562,3.784929 0.520206,7.765748 0.836781,11.745881"
     stroke="#000000"
     id="path8"
     style="stroke-width:0.684931"
     sodipodi:nodetypes="ccssccsssscsccccccscscc" />
  <path
     d="m 21.490884,99.422676 c -0.09041,-0.700685 -0.180891,-1.402054 -0.350411,-2.129451 -0.16952,-0.727396 -0.418356,-1.481505 -0.731095,-2.122601 -0.31274,-0.64041 -0.689726,-1.168492 -1.126917,-1.443834 -0.437192,-0.276027 -0.934794,-0.29863 -1.402465,-0.208219 -0.467671,0.09041 -0.904999,0.293835 -1.259588,0.610958 -0.35452,0.316438 -0.625958,0.746575 -0.855958,1.243835 -0.229931,0.497945 -0.418424,1.063698 -0.50952,1.753423 -0.0911,0.689726 -0.085,1.503424 -0.07884,2.315752"
     stroke="#000000"
     id="path10"
     style="stroke-width:0.684931" />
  <path
     d="m 37.638405,99.17747 c -0.05966,-1.058218 -0.119452,-2.116436 -0.264384,-2.855477 -0.144931,-0.738355 -0.375479,-1.156848 -0.691232,-1.511642 -0.315753,-0.35411 -0.717054,-0.64452 -1.148218,-0.841096 -0.431233,-0.196575 -0.892328,-0.299314 -1.345342,-0.141095 -0.453013,0.157534 -0.897054,0.576027 -1.234451,1.135615 -0.337397,0.559589 -0.567876,1.259588 -0.627533,2.002738 -0.05959,0.74315 0.05137,1.528766 0.16226,2.313012"
     stroke="#000000"
     id="path12"
     style="stroke-width:0.684931" />
  <path
     d="m 21.261363,53.386344 c 0.304726,0 0.551781,-0.247055 0.551781,-0.551781 0,-0.304794 -0.247055,-0.55178 -0.551781,-0.55178 -0.304725,0 -0.55178,0.246986 -0.55178,0.55178 0,0.304726 0.247055,0.551781 0.55178,0.551781 z"
     fill="#000000"
     id="path14"
     style="stroke-width:0.684931" />
  <path
     d="m 28.066769,53.378262 c 0.304725,0 0.55178,-0.246987 0.55178,-0.551712 0,-0.304795 -0.247055,-0.551781 -0.55178,-0.551781 -0.304795,0 -0.551781,0.246986 -0.551781,0.551781 0,0.304725 0.246986,0.551712 0.551781,0.551712 z"
     fill="#000000"
     id="path16"
     style="stroke-width:0.684931" />
  <path
     d="m 23.696498,55.202918 c 0.396164,-0.02164 1.187876,-0.06795 1.556917,0.03034 0.369041,0.09836 0.316232,0.339657 0.195616,1.033355 -0.120616,0.69363 -0.309109,1.839588 -0.437191,2.423628 -0.128082,0.583973 -0.195685,0.606438 -0.527397,-0.02705 -0.331712,-0.632877 -0.927328,-1.922122 -1.168698,-2.60493 -0.241301,-0.682807 -0.128287,-0.758218 -0.07185,-0.795821 0.05644,-0.0376 0.05644,-0.0376 0.452602,-0.06014 z"
     stroke="#000000"
     id="path18"
     style="stroke-width:0.684931" />
  <path
     d="m 15.897395,41.021628 c -0.419246,-1.017191 -1.258013,-3.052395 -1.773492,-3.952326 -0.51541,-0.89993 -0.706985,-0.663698 -1.776231,-0.643287 -1.069177,0.02164 -3.01671,-0.174931 -4.9058863,-1.460957 C 5.5526708,33.679237 3.7221723,31.302321 2.3625159,28.275405 1.0028595,25.248559 0.11450403,21.571712 0.39416133,18.052674 0.67381863,14.533704 2.1217695,11.173296 3.6245902,8.8644626 5.127404,6.5555604 6.684663,5.2988011 9.061784,4.1102884 11.438906,2.9217551 14.63541,1.8016122 18.487872,1.1186265 22.340335,0.43564074 26.848208,0.18976697 31.01478,0.43577087 c 4.16664,0.24589702 7.9915,0.98363623 11.502251,2.63682663 3.510819,1.6531972 6.707254,4.2213184 7.943349,8.3411785 1.236095,4.119791 0.512603,9.790882 -1.693286,13.746427 -2.205889,3.955544 -5.894173,6.195885 -9.445814,7.794103 -3.551641,1.598355 -6.966707,2.554518 -10.545676,2.978079 -3.57897,0.423562 -7.321912,0.314247 -9.289308,0.314178 -1.967395,-6.8e-5 -2.158628,0.109178 -2.322669,0.997602 -0.164041,0.888356 -0.300685,2.55493 -0.437328,3.483559 -0.136644,0.928698 -0.273219,1.119931 -0.341439,1.215478 -0.06829,0.09555 -0.06822,0.09555 -0.487465,-0.921574 z"
     stroke="#000000"
     id="path20"
     style="stroke-width:0.684931" />
  <path
     d="M 6.9674025,9.0953528 C 8.9867844,8.8345996 11.005687,8.5737094 13.023904,8.3129562"
     stroke="#000000"
     id="path22"
     style="stroke-width:0.684931" />
  <path
     d="m 9.604387,8.7187093 c 0.405821,2.3867107 0.811506,4.7725987 1.217053,7.1576657"
     stroke="#000000"
     id="path24"
     style="stroke-width:0.684931" />
  <path
     d="M 7.6338403,16.542881 C 9.711236,16.175689 11.788015,15.808566 13.864246,15.441649"
     stroke="#000000"
     id="path26"
     style="stroke-width:0.684931" />
  <path
     d="m 16.906915,7.4726144 c 0.637739,2.5895866 1.275273,5.1782836 1.593971,6.4722546 0.31863,1.293903 0.695342,1.670615 1.053081,1.627122 0.357671,-0.04356 1.072465,-0.130479 1.569588,-0.39589 0.497123,-0.265411 0.77726,-0.709862 0.75815,-1.260136 -0.0189,-0.550205 -0.337808,-1.207122 -0.694999,-1.617875 -0.357192,-0.410822 -0.75315,-0.574931 -1.091643,-0.560685 -0.338424,0.01349 -0.618493,0.207397 -0.879451,0.603699 -0.260959,0.396232 -0.502466,0.995136 -0.743835,1.593697"
     stroke="#000000"
     id="path28"
     style="stroke-width:0.684931" />
  <path
     d="m 26.817592,14.978019 c -0.33774,0.16411 -0.675822,0.328288 -1.047534,0.420068 -0.371643,0.09185 -0.777396,0.111028 -1.062533,-0.08151 -0.285137,-0.192809 -0.449315,-0.598356 -0.526781,-1.091095 -0.07747,-0.49274 -0.06781,-1.07226 0.120548,-1.574931 0.188356,-0.502602 0.555342,-0.92767 0.922876,-1.072396 0.367534,-0.144931 0.734589,-0.01082 0.941917,0.19363 0.207329,0.203082 0.255617,0.473561 0.15411,0.719451 -0.101507,0.245891 -0.352603,0.468082 -0.719452,0.661233 -0.366917,0.193082 -0.849862,0.357328 -1.333286,0.521643"
     stroke="#000000"
     id="path30"
     style="stroke-width:0.684931" />
  <path
     d="m 27.484098,9.0084351 c 0,0.049041 0,0.097192 0.130479,1.2660949 0.130411,1.168903 0.391233,3.458148 0.651918,5.746639"
     stroke="#000000"
     id="path32"
     style="stroke-width:0.684931" />
  <path
     d="m 30.324027,13.065418 c 0.09664,0.841164 0.193288,1.681574 0.289726,2.521162"
     stroke="#000000"
     id="path34"
     style="stroke-width:0.684931" />
  <path
     d="m 30.019712,10.312407 c 0.200069,0 0.36226,-0.162192 0.36226,-0.36226 0,-0.2 -0.162191,-0.362192 -0.36226,-0.362192 -0.2,0 -0.362191,0.162192 -0.362191,0.362192 0,0.200068 0.162191,0.36226 0.362191,0.36226 z"
     fill="#000000"
     id="path36"
     style="stroke-width:0.684931" />
  <path
     d="m 35.134434,14.601239 c -0.453698,0.212328 -0.90767,0.424931 -1.308287,0.483013 -0.400616,0.05829 -0.748355,-0.03843 -0.980478,-0.332671 -0.232192,-0.294315 -0.348082,-0.786986 -0.328904,-1.303903 0.01918,-0.516986 0.17363,-1.057944 0.439452,-1.449451 0.265821,-0.391575 0.642533,-0.633013 0.9713,-0.651917 0.328767,-0.01897 0.608835,0.183835 0.729109,0.459178 0.120343,0.275273 0.08171,0.623081 -0.145068,0.888286 -0.226781,0.265137 -0.642191,0.448767 -0.989794,0.559863 -0.347602,0.111027 -0.627739,0.149794 -0.908424,0.188562"
     stroke="#000000"
     id="path38"
     style="stroke-width:0.684931" />
  <path
     d="m 36.26457,12.0222 c 0.35774,0.908835 0.715205,1.816848 0.937397,2.25582 0.22226,0.43904 0.309177,0.409999 0.559999,-0.232055 0.250822,-0.642123 0.666232,-1.897807 1.081712,-3.15397"
     stroke="#000000"
     id="path40"
     style="stroke-width:0.684931" />
  <path
     d="m 42.958674,13.876787 c -0.482602,0.173904 -0.965615,0.347603 -1.448355,0.40089 -0.482808,0.05336 -0.965752,-0.01349 -1.164245,-0.400479 -0.198425,-0.386095 -0.111507,-1.0913 0.07199,-1.709656 0.183493,-0.618356 0.46363,-1.149588 0.864794,-1.473355 0.401232,-0.323835 0.922807,-0.439726 1.255958,-0.284657 0.33315,0.154931 0.478013,0.579999 0.395753,0.965958 -0.08226,0.385958 -0.39137,0.733698 -0.772602,0.936506 -0.381233,0.202808 -0.835205,0.260822 -1.149109,0.308972 -0.313904,0.04822 -0.487876,0.08699 -0.662328,0.125685"
     stroke="#000000"
     id="path42"
     style="stroke-width:0.684931" />
  <path
     d="m 8.2243877,25.47075 c 0.1810958,1.073903 0.3620545,2.146985 0.5429448,3.219176"
     stroke="#000000"
     id="path44"
     style="stroke-width:0.684931" />
  <path
     d="m 7.8558949,23.104862 c 0.203493,0 0.3684928,-0.165 0.3684928,-0.368493 0,-0.203493 -0.1649998,-0.368424 -0.3684928,-0.368424 -0.203493,0 -0.3684244,0.164931 -0.3684244,0.368424 0,0.203493 0.1649314,0.368493 0.3684244,0.368493 z"
     fill="#000000"
     id="path46"
     style="stroke-width:0.684931" />
  <path
     d="m 15.729176,28.593008 c -0.174383,-0.884794 -0.348904,-1.77041 -0.616917,-2.478217 -0.268082,-0.707808 -0.630068,-1.237876 -1.037602,-1.309451 -0.407466,-0.07144 -0.859931,0.316301 -1.247807,0.671917 -0.387877,0.355548 -0.711096,0.678698 -0.820959,1.377259 -0.109862,0.698493 -0.0065,1.771506 -0.08404,1.532328 -0.07753,-0.23911 -0.336095,-1.790478 -0.594794,-3.342669"
     stroke="#000000"
     id="path48"
     style="stroke-width:0.684931" />
  <path
     d="m 23.439375,24.119724 c 0.229247,0.645136 0.458219,1.289382 0.688013,1.740273 0.229795,0.450958 0.460205,0.708698 0.814383,0.727191 0.354178,0.01897 0.832534,-0.201165 1.176095,-1.008424 0.34363,-0.80726 0.552808,-2.202601 0.547534,-1.103218 -0.0051,1.099382 -0.225068,4.69342 -0.444794,8.286842"
     stroke="#000000"
     id="path50"
     style="stroke-width:0.684931" />
  <path
     d="m 30.487246,24.649792 c -0.232465,0.03219 -0.697876,0.09692 -1.10541,0.284383 -0.407465,0.187397 -0.756506,0.497808 -0.982876,0.88589 -0.226301,0.38815 -0.329794,0.853561 -0.219452,1.260889 0.110274,0.407329 0.433493,0.756438 0.879452,0.885274 0.446027,0.128904 1.014862,0.03849 1.486437,-0.220137 0.471575,-0.25863 0.846437,-0.685137 0.982328,-1.143698 0.13589,-0.458561 0.0324,-0.949862 -0.141781,-1.286095 -0.174246,-0.336232 -0.419863,-0.51726 -0.543082,-0.608081 -0.123219,-0.09075 -0.123219,-0.09069 -0.355616,-0.05849 z"
     stroke="#000000"
     id="path52"
     style="stroke-width:0.684931" />
  <path
     d="m 34.365394,24.578696 c -0.03884,0.440205 -0.07767,0.879862 -0.04356,1.27589 0.03411,0.396095 0.140685,0.748218 0.302602,0.967807 0.16185,0.219589 0.378562,0.306849 0.687123,0.34226 0.30863,0.03548 0.709315,0.0189 0.961027,-0.167945 0.251712,-0.187123 0.355137,-0.545959 0.452123,-1.048492 0.09699,-0.502603 0.187465,-1.148835 0.336232,-0.864315 0.148836,0.284589 0.355616,1.499725 0.562329,2.714176"
     stroke="#000000"
     id="path54"
     style="stroke-width:0.684931" />
  <path
     d="m 40.182033,20.676919 c 0.118904,1.244108 0.237739,2.487326 0.356506,3.72986"
     stroke="#000000"
     id="path56"
     style="stroke-width:0.684931" />
  <path
     d="m 40.730525,26.957256 c 0.166644,0 0.301712,-0.135137 0.301712,-0.301712 0,-0.166644 -0.135068,-0.301644 -0.301712,-0.301644 -0.166575,0 -0.301643,0.135 -0.301643,0.301644 0,0.166575 0.135068,0.301712 0.301643,0.301712 z"
     fill="#000000"
     id="path58"
     style="stroke-width:0.684931" />
</svg>
