<?xml version="1.0" encoding="UTF-8" standalone="no"?>
<svg
   width="100"
   height="65.663002"
   viewBox="0 0 100 65.663002"
   fill="none"
   version="1.1"
   id="svg"
   sodipodi:docname="4.svg"
   inkscape:version="1.1-alpha (ae80b40, 2021-03-23)"
   xmlns:inkscape="http://www.inkscape.org/namespaces/inkscape"
   xmlns:sodipodi="http://sodipodi.sourceforge.net/DTD/sodipodi-0.dtd"
   xmlns="http://www.w3.org/2000/svg"
   xmlns:svg="http://www.w3.org/2000/svg">
  <defs
     id="defs42" />
  <sodipodi:namedview
     id="namedview40"
     pagecolor="#505050"
     bordercolor="#eeeeee"
     borderopacity="1"
     objecttolerance="10.0"
     gridtolerance="10.0"
     guidetolerance="10.0"
     inkscape:pageshadow="0"
     inkscape:pageopacity="0"
     inkscape:pagecheckerboard="0"
     showgrid="false"
     inkscape:zoom="29.594406"
     inkscape:cx="67.799976"
     inkscape:cy="9.8498346"
     inkscape:window-width="1920"
     inkscape:window-height="1009"
     inkscape:window-x="1912"
     inkscape:window-y="-8"
     inkscape:window-maximized="1"
     inkscape:current-layer="svg" />
  <path
     d="m 59.760885,65.282608 c 6.75998,0.08308 20.279163,-0.02812 27.274724,-0.19499 6.996266,-0.166873 7.46912,-0.389488 7.622039,-4.853836 0.15292,-4.464277 -0.01409,-13.170991 -0.334027,-20.556533 C 94.003687,32.291707 93.530833,26.22769 92.779622,22.166361 92.029116,18.105031 90.999549,16.046601 89.733907,13.654285 88.468265,11.261968 86.966548,8.535975 84.949696,6.5606928 82.932843,4.5854176 80.40156,3.3614869 77.703262,2.6380274 75.004964,1.9146031 72.139652,1.6920587 69.107679,2.0118659 66.075424,2.331673 62.876507,3.1939937 60.303082,5.1692125 c -2.573425,1.9751907 -4.520583,5.0629065 -5.981004,8.7210765 -1.460421,3.65824 -2.433965,7.886372 -2.892936,12.615405 -0.458901,4.729104 -0.4033,9.958685 -0.05546,16.398519 0.347699,6.439834 0.987567,14.089427 1.307431,18.053367 0.319863,3.96394 0.319863,4.242085 7.079843,4.325169 z"
     stroke="#000000"
     id="path2"
     style="stroke-width:0.7047" />
  <path
     d="M 57.423817,64.976345 C 57.117836,59.274544 56.811855,53.571968 56.575428,47.479903 56.33886,41.387839 56.172058,34.906568 56.422438,30.191348 56.672677,25.476197 57.34038,22.52759 58.063614,19.96833 c 0.723234,-2.559261 1.502069,-4.729033 2.893077,-6.634755 1.391008,-1.905721 2.988355,-3.6482682 4.490636,-4.6497884 1.50235,-1.0014497 2.621996,-1.0758151 3.275817,-1.0753218 0.653821,4.228e-4 1.635796,0.057827 2.247707,1.1706854 0.611801,1.1126559 0.671143,4.0185068 1.805868,4.2289228 0.449641,0.08338 1.565782,0.508936 2.14958,-0.603485 0.583891,-1.1126 0.614521,-3.1012824 1.157141,-4.2280984 0.543324,-1.1268864 1.175156,-1.1716876 1.95385,-0.9071431 0.779398,0.2644036 1.975275,0.8207646 3.324072,1.9336979 1.349501,1.1128626 2.851217,2.7818756 3.963939,5.1463566 1.112017,2.364622 1.835745,5.424431 2.419941,8.887681 0.583492,3.463321 1.028863,7.329871 1.264938,11.655463 0.236779,4.325592 0.264262,9.110085 0.361511,14.214652 0.09725,5.104498 0.264967,10.528788 0.431277,15.952374"
     stroke="#000000"
     id="path4"
     style="stroke-width:0.7047"
     sodipodi:nodetypes="cccssccsssccccccsc" />
  <path
     d="m 59.760815,65.282608 c -7.1e-5,-1.631311 -2.12e-4,-3.263397 0.208168,-4.552505 0.20838,-1.289109 0.625774,-2.234887 1.363384,-2.721905 0.73761,-0.486948 1.79459,-0.514714 2.670815,-0.02784 0.876154,0.48723 1.571552,1.488679 1.988594,2.809993 0.416971,1.321313 0.556079,2.96249 0.695116,4.602962"
     stroke="#000000"
     id="path6"
     style="stroke-width:0.7047" />
  <path
     d="m 87.800209,64.725965 c -0.167014,-1.417927 -0.333323,-2.83656 -0.653257,-4.032648 -0.319934,-1.196158 -0.792788,-2.169772 -1.487623,-2.740368 -0.695539,-0.570596 -1.613764,-0.737539 -2.531988,-0.403793 -0.918225,0.333675 -1.836449,1.168182 -2.197961,2.517753 -0.361511,1.349572 -0.167014,3.213293 0.02819,5.07631"
     stroke="#000000"
     id="path8"
     style="stroke-width:0.7047" />
  <path
     d="m 68.917551,15.652181 c 0.407387,0 0.73761,-0.330223 0.73761,-0.73761 0,-0.407388 -0.330223,-0.73761 -0.73761,-0.73761 -0.407388,0 -0.73761,0.330222 -0.73761,0.73761 0,0.407387 0.330222,0.73761 0.73761,0.73761 z"
     fill="#000000"
     id="path10"
     style="stroke-width:0.7047" />
  <path
     d="m 78.50662,15.622654 c 0.407317,0 0.737822,-0.330223 0.737822,-0.73761 0,-0.407317 -0.330505,-0.73761 -0.737822,-0.73761 -0.407317,0 -0.737821,0.330293 -0.737821,0.73761 0,0.407387 0.330504,0.73761 0.737821,0.73761 z"
     fill="#000000"
     id="path12"
     style="stroke-width:0.7047" />
  <path
     d="m 72.989521,19.340301 c 0.384062,-0.02953 1.150776,-0.08858 1.613059,-0.0883 0.462284,1.41e-4 0.620136,0.05905 0.658895,1.082208 0.03876,1.023014 -0.04017,3.009634 -0.157148,3.992762 -0.117685,0.983198 -0.275538,0.963537 -0.737822,0.02953 -0.462283,-0.933939 -1.229702,-2.782932 -1.573595,-3.766765 -0.344599,-0.983832 -0.266377,-1.101869 -0.226914,-1.160923 0.03946,-0.05905 0.03946,-0.05905 0.423525,-0.08858 z"
     stroke="#000000"
     id="path14"
     style="stroke-width:0.7047" />
  <path
     d="m 93.318013,24.739645 c 1.613059,2.656297 3.226118,5.311679 4.337431,7.780315 1.111312,2.468636 1.720878,4.750174 1.91749,6.107145 0.196609,1.356971 -0.01973,1.789727 -0.461579,1.976473 -0.442552,0.186675 -1.111313,0.127832 -1.996416,-0.865161 -0.885104,-0.992923 -1.986551,-2.92049 -3.088702,-4.849043"
     stroke="#000000"
     id="path16"
     style="stroke-width:0.7047" />
  <path
     d="m 51.480233,25.860823 c -1.200034,2.163923 -2.399857,4.327565 -3.294827,6.638982 -0.894969,2.311347 -1.485085,4.770047 -1.632438,6.707691 -0.147424,1.937644 0.147705,3.35388 0.698499,3.854922 0.550794,0.501113 1.357182,0.08809 2.035597,-0.80667 0.678415,-0.894758 1.229209,-2.271602 1.780073,-3.648868"
     stroke="#000000"
     id="path18"
     style="stroke-width:0.7047" />
  <path
     d="m 45.184581,10.5937 c 0.779328,0.445301 2.337138,1.335478 3.143457,1.891909 0.806388,0.556502 0.86206,0.779188 0.194497,1.168112 -0.667563,0.388924 -2.05836,0.945214 -2.767922,1.335055 -0.709563,0.38984 -0.737328,0.612455 -0.514643,1.586139 0.222615,0.973755 0.69568,2.698369 0.667704,3.908057 -0.02791,1.209619 -0.556573,1.905087 -1.293689,2.850866 -0.737187,0.945849 -1.682966,2.141937 -3.61603,3.254518 -1.933063,1.112581 -4.853835,2.141795 -8.108423,2.892865 -3.254588,0.75114 -6.842923,1.224065 -10.570435,1.446539 -3.727513,0.222685 -7.593993,0.194779 -11.085079,-0.570033 C 7.7430035,29.592916 4.6275724,28.090777 2.7495388,25.809944 0.87150516,23.52911 0.23172112,20.469301 0.37064505,17.325703 0.50967679,14.182176 1.427542,10.955353 3.1106203,8.2707258 4.7936703,5.5860921 7.2415387,3.4441905 10.232216,2.1228562 13.222894,0.80149358 16.755628,0.30076519 20.622389,0.35651827 c 3.866691,0.0557256 8.067058,0.66772413 11.933749,1.83623013 3.866621,1.168513 7.399425,2.8931051 9.346371,4.1729538 1.946946,1.2798134 2.308598,2.1143196 2.461307,2.6705396 0.152709,0.55622 0.09725,0.8343653 0.06934,0.9731912 -0.02783,0.138756 -0.02783,0.139038 0.751493,0.584267 z"
     stroke="#000000"
     id="path20"
     style="stroke-width:0.7047" />
  <path
     d="m 10.101635,13.238089 c -0.6952567,0.444947 -1.3907255,0.890107 -1.8776735,1.418843 -0.4870184,0.528807 -0.7651637,1.140699 -0.7229521,1.599882 0.042071,0.459182 0.4037933,0.765163 0.9879195,0.86213 0.5840557,0.09697 1.3907264,-0.01395 2.1141011,0.02784 0.723375,0.04179 1.363243,0.236568 1.738425,0.570737 0.375183,0.334098 0.486455,0.806952 0.458478,1.307501 -0.02783,0.500478 -0.194779,1.029074 -0.889966,1.376561 -0.695046,0.347418 -1.9190397,0.514291 -3.1435976,0.681305"
     stroke="#000000"
     id="path22"
     style="stroke-width:0.7047" />
  <path
     d="m 15.776376,20.832292 c -0.361441,-1.751673 -0.723093,-3.504193 -0.897083,-4.406632 -0.174132,-0.90251 -0.160179,-0.954728 -0.0056,-0.342625 0.153272,0.612102 0.445229,1.888244 0.757975,2.025379 0.312817,0.137064 0.646633,-0.864315 0.924849,-1.476488 0.278357,-0.612174 0.500831,-0.834788 0.807164,-0.70914 0.306333,0.125648 0.695751,0.598431 0.984114,1.205249 0.288434,0.606888 0.476166,1.347457 0.590962,1.752449 0.114795,0.405061 0.156655,0.474756 0.157994,-0.100843 0.0015,-0.575458 -0.03672,-1.795929 0.224306,-2.521348 0.261091,-0.725489 0.820835,-0.955009 1.295521,-0.777143 0.474757,0.177725 0.864174,0.761922 1.065577,1.540757 0.201474,0.778835 0.215427,1.752449 0.22931,2.725358"
     stroke="#000000"
     id="path24"
     style="stroke-width:0.7047" />
  <path
     d="m 25.039522,15.574805 c 0.166943,1.28037 0.333957,2.559965 0.50076,3.838784"
     stroke="#000000"
     id="path26"
     style="stroke-width:0.7047" />
  <path
     d="m 24.371889,12.320146 c 0.276524,0 0.500689,-0.224165 0.500689,-0.50069 0,-0.276595 -0.224165,-0.50076 -0.500689,-0.50076 -0.276525,0 -0.50069,0.224165 -0.50069,0.50076 0,0.276525 0.224165,0.50069 0.50069,0.50069 z"
     fill="#000000"
     id="path28"
     style="stroke-width:0.7047" />
  <path
     d="m 27.292731,10.818006 c 0.528666,2.97736 1.057191,5.953732 1.585576,8.92933"
     stroke="#000000"
     id="path30"
     style="stroke-width:0.7047" />
  <path
     d="m 31.089798,17.243817 c 0.876929,-0.08358 1.753083,-0.166944 2.32995,-0.40323 0.576868,-0.236286 0.855013,-0.625774 0.827601,-1.028792 -0.02784,-0.403018 -0.36123,-0.8202 -0.820272,-1.001449 -0.458971,-0.18139 -1.043097,-0.125648 -1.502491,0.222333 -0.459395,0.34791 -0.793211,0.987637 -0.904413,1.836378 -0.111131,0.848671 1.41e-4,1.905722 0.264686,2.545308 0.264756,0.639656 0.681938,0.862201 1.265853,0.806247 0.583915,-0.05595 1.334984,-0.389699 2.085702,-0.723375"
     stroke="#000000"
     id="path32"
     style="stroke-width:0.7047" />
  <path
     d="m 36.389004,11.569076 c 0.361793,1.642093 0.723445,3.28334 1.084886,4.923671"
     stroke="#000000"
     id="path34"
     style="stroke-width:0.7047" />
  <path
     d="m 38.224889,19.663899 c 0.299568,0 0.542478,-0.24284 0.542478,-0.542408 0,-0.299638 -0.24291,-0.542478 -0.542478,-0.542478 -0.299568,0 -0.542408,0.24284 -0.542408,0.542478 0,0.299568 0.24284,0.542408 0.542408,0.542408 z"
     fill="#000000"
     id="path36"
     style="stroke-width:0.7047" />
</svg>
